<svg xmlns="http://www.w3.org/2000/svg" viewBox="0 0 106.1 104.3"><path fill="#565776" d="M.6 85.2c6.6.1 10-4.9 14.2-8.8 2.6-2.4 3.8-4.1 1.6-8.1-4-7-2.3-8.5 5.6-10 5.3-1 8.7-6 11.4-10.2 2-3.4-3-5.1-5-7.3-5-5.6-10.5-10.9-15.8-16.2-1.9-1.9-8.7-18.1-7.3-20.8.4-.8 20-2.2 26.4 3.1C39 13.3 45 26 53 25.8 60 25.6 66.3 13.4 73.4 7c6.4-5.8 18-5.7 24.7-7 2.9-.7-1.4 20.1-4.9 23.8-5.7 6-24.4 21-21 25 3.2 3.6 5.8 9.8 11.6 9 9-1.3 6.7 4.7 6 8.7-1.3 7 3.1 17.3 10 17.5 8 .2 6.3 4.4 5.9 9-3.5 11.2-22.8 13-20.3 4 2-7.2-7.5-11-16-9.3-5.1 1-9-1.3-9.8-7.1-.4-4.3-2.5-8-7-8.3-4.7-.2-6.2 4-7 8-1 5.5-4.6 8.5-9.7 7.4-9-1.9-16 2-16.6 10-1 14-19.1 1.8-19.3-2.7.1-7.3 4-3.4 6.6-2.5C5 90.1 0 89.8.6 85.2z"/><path fill="#f4f4f4" d="M51.7 47.4 34.6 63.7c-1.8 1.6-3.2 4.6-6.4 1.6-3.4-3.2-.9-5.1 1.2-7.2L75 10.5c1.5-1.6 3.4-3.8 5.3-4C84.4 6.3 90 4 92 8.2c1.9 4 2.1 9.6-2 13.7L72.7 39.3c-8.5 9-16.6 18.7-25.5 27.3-2.9 2.8-5.4 11.1-10.8 6.1-6-5.5 3.2-7.4 5.4-10.9 3.4-5.1 9.5-8 12-14.1 6.2-11.4 17.4-18.1 24.7-27L51.7 47.4z"/><path fill="#f6f5f5" d="M20.4 15.7c4.9 7.3 12.1 12.5 17.8 19 1.6 1.9 5.9 3.1 2.3 7-3.9 4.2-5.6-.2-7.7-2.1-5.7-5.5-11-11.3-16.7-16.7C11 18 10 11 14 7.3c3-3 10.4-2.8 15 2.3 5.8 6.2 12 12.1 18.1 18.1 2 2 4 3.5 1 6.4-3 2.9-4.6.8-6.4-1.2l-18-20.6-3.4 3.4z"/><path fill="#ebeaec" d="M68.1 50.7c3.5 4 9 6.5 10.5 12.1.3 1.4-2.5 4.3-4 3.6-5-2.5-9-6.6-11.5-11.6-.5-1 2.2-3.7 5-4.1z"/><path fill="#eae9eb" d="M71.1 70.3c-1.4 2-2.7 5.2-5 3.9A25.6 25.6 0 0 1 55.3 63c-.8-1.8 3-5 4.2-4.3A36 36 0 0 1 71 70.3z"/><path fill="#565776" d="M51.7 47.4C59.6 34 72.5 25.2 82.7 14l2.4 2.3-31.3 31.5-2.1-.3z"/><path fill="#dcdbe0" d="M37.5 82.1c-7.9-4.6-15-10.2-18-19.9l18 20z"/><path fill="#dedde2" d="m67.7 82.2 17.8-19.8c-3 9.6-10 15.3-17.8 19.8z"/></svg>