<svg xmlns="http://www.w3.org/2000/svg" width="141.504" height="139.008" viewBox="0 0 106.139 104.281" xmlns:v="https://vecta.io/nano"><path d="M.574 85.227c6.638.101 10.068-4.902 14.244-8.803 2.607-2.436 3.762-4.131 1.536-8.14-3.93-7.078-2.269-8.525 5.603-9.947 5.361-.968 8.748-5.976 11.398-10.228 2.116-3.396-2.866-5.145-4.869-7.339-5.101-5.587-10.588-10.824-15.934-16.187-1.844-1.85-8.702-18.109-7.238-20.826.414-.768 20.072-2.194 26.345 3.173 7.471 6.393 13.309 19.035 21.439 18.863 6.862-.145 13.213-12.366 20.275-18.705C79.766 1.349 91.463 1.44 98.057.014c2.919-.631-1.324 20.198-4.821 23.854-5.687 5.946-24.465 21.105-21.081 24.969 3.21 3.665 5.865 9.84 11.623 9.044 9.052-1.25 6.735 4.763 6.009 8.686-1.286 6.951 3.109 17.31 9.927 17.498 8.103.223 6.43 4.421 5.965 8.99-3.522 11.227-22.77 12.999-20.243 4.089 2.047-7.221-7.569-11.104-16.128-9.346-5.038 1.035-8.984-1.276-9.661-7.123-.496-4.282-2.518-8.025-6.965-8.237-4.786-.228-6.326 3.961-7.062 8.001-1.004 5.509-4.588 8.42-9.713 7.351-9.028-1.882-16.052 2.072-16.641 9.932C18.215 111.757.199 99.575 0 95.13c.134-7.363 3.925-3.404 6.593-2.487C5.118 90.065.148 89.826.574 85.227z" fill="#535353"/><path d="M51.696 47.442L34.593 63.681c-1.76 1.643-3.216 4.579-6.398 1.596-3.4-3.187-.888-5.079 1.174-7.224L75.061 10.54c1.549-1.603 3.421-3.816 5.303-3.987 3.992-.362 9.71-2.593 11.693 1.518 1.92 3.979 2.17 9.65-1.982 13.768l-17.372 17.49c-8.547 9.057-16.575 18.63-25.506 27.282-2.869 2.779-5.354 11.117-10.788 6.111-5.996-5.524 3.143-7.468 5.389-10.897 3.358-5.127 9.535-8.065 11.96-14.136 6.29-11.341 17.456-18.112 24.749-26.988L51.696 47.442zM20.4 15.732c4.856 7.273 12.113 12.432 17.791 18.978 1.604 1.849 5.864 3.114 2.352 6.928-3.937 4.276-5.67-.092-7.703-2.043-5.699-5.467-11.071-11.275-16.777-16.735-5.058-4.839-5.916-11.813-1.968-15.6 3.088-2.962 10.383-2.711 15.022 2.306 5.804 6.277 12.031 12.166 18.121 18.177 1.936 1.911 3.915 3.449.983 6.329-2.968 2.915-4.663.847-6.4-1.124L23.84 12.258l-3.44 3.474z" fill="#f2f3f3"/><path d="M68.105 50.651c3.506 3.995 8.992 6.516 10.452 12.189.361 1.403-2.478 4.245-3.912 3.529-5.017-2.505-9.043-6.551-11.5-11.572-.507-1.036 2.164-3.69 4.961-4.146z" fill="#e7e7e7"/><path d="M71.147 70.259c-1.455 1.972-2.736 5.219-5.057 3.893-4.506-2.575-8.547-6.3-10.746-11.051-.835-1.805 2.989-4.946 4.119-4.295 4.772 2.748 8.574 6.826 11.684 11.453z" fill="#e6e6e6"/><path d="M51.696 47.442c7.88-13.505 20.809-22.193 30.933-33.557l2.508 2.293-31.379 31.511-2.062-.247z" fill="#535353"/><path d="M37.487 82.128C29.61 77.547 22.442 71.932 19.54 62.238l17.948 19.891z" fill="#d8d8d7"/><path d="M67.674 82.222l17.834-19.838c-2.948 9.627-9.985 15.309-17.834 19.838z" fill="#dbdada"/></svg>