<svg xmlns="http://www.w3.org/2000/svg" width="532.003" height="288.488" viewBox="0 0 399 216.4"><defs><linearGradient id="a" x1="201.434" x2="201.434" y1="97.554" y2="153.156" gradientUnits="userSpaceOnUse"><stop offset=".466" stop-color="#2e2e2e"/><stop offset=".688" stop-color="#dedede"/></linearGradient><linearGradient id="b" x1="199.501" x2="199.501" y1="62.948" y2="224.252" gradientUnits="userSpaceOnUse"><stop offset=".677" stop-color="#2e2e2e"/><stop offset=".772" stop-color="#dedede"/></linearGradient><linearGradient id="c" x1="200.293" x2="200.293" y1="-3.84" y2="137.673" gradientUnits="userSpaceOnUse"><stop offset=".471" stop-color="#2e2e2e"/><stop offset=".64" stop-color="#dedede"/></linearGradient></defs><path fill="url(#a)" d="m206 118.8 1.8-.5c2.9-1.2 4.4-3.1 4.4-5.7-.1-.5-.4-1-.9-1.3l-1.5 1.1c-.4.4-1.2.5-2.3.5h-4v-11.8h-.6l-3.4 1.8-1.4.8c-.6.7-.9 2.4-.9 5v4.6c0 .3 0 .6-.3.9a13 13 0 0 0-2.4 3.7v1.8h.7l.5-.4c.5-.3.9-.5 1.2-.4v15c0 1 .9 2.3 2.6 4 1.7 1.6 3 2.5 4 2.5.6-.1 2-.9 4.2-2.3l1.7-1.2 2-1.3c0-.3-.2-.5-.3-.7l-1-.2-.7.1h-.7c-3.4 0-5.2-1.7-5.2-5v-10.5l2.5-.5zm30.9 20.7c2.5-3.4 3.8-6.9 3.8-10.3v-2.6a17 17 0 0 0-5.5-12c-1.2-1.2-2-1.8-2.1-1.8-.2 0-1.7 1-4.6 3-3 2-4.9 3-5.7 3.2h-.7c.2-.3.3-.7.3-1.5l-.3-9 .2-2 .1-2.3c0-.7.3-1.4.8-2l1.7-2.2c0-.6-.4-1-1-1l-5 2.5-4.3 2.5c0 .3.2.6.4.9.8.6 1.2 1.1 1.2 1.5v29.2c0 .4 0 1-.3 1.7l-1 1.5v1.6h1.2c.3-.4.8-.6 1.4-.6l1.2-.2c1 0 2 .1 2.8.4l1.3.4.7-.2c.2 0 .3-.3.3-.6l-.7-1.6c-.5-1-.7-1.8-.7-2.4v-13.4c1.7-1.3 3.3-2.3 4.9-3l1.4-.8c1.2 0 2.4 1.6 3.7 4.7 1 2.8 1.6 5 1.6 6.3v2.2c0 1.8-.4 3.8-1.4 6.2-.5 1.1-1 2.1-1.6 3s-1.1 1.7-1.8 2.3a20.6 20.6 0 0 1-9.5 5c-1.4.4-2 .7-2 1.1l.4.9c.1.2.4.3.8.3h2.4c2.4 0 5.3-1.3 8.7-3.9 2.9-2.2 5.2-4.6 6.9-7zm29.5-10c-.1-.2-.3-.3-.6-.3l-3.3 3.2a7.6 7.6 0 0 1-4.5 1.5c-2.2 0-4.1-.7-5.8-2.2a10.7 10.7 0 0 1-2-2.1c0-.1 1.2-1 3.7-2.4l4-2.3 6.1-3.7c2.1-1.2 3.2-2.1 3.2-2.6 0-.4-1.6-1.4-4.6-3.1-3-1.7-4.7-2.6-5.5-2.6h-2c-2.3 0-4.6 1.3-7 3.9-2.3 2.5-3.5 5-3.5 7.2v5.4c0 2 1 4.4 3.2 7 2.1 2.7 4.2 4 6.3 4h2.8c2 0 4-1.2 6.3-3.5s3.4-4.4 3.4-6.4l-.2-1zm-17.8-3.8-.4-1V121l1.9-3.6c.8-.9 1.8-1.4 2.8-1.4.9 0 1.6.4 2.2 1 1.8 2.3 3.3 3.7 4.5 4.3l-6.6 4a35 35 0 0 0-3.4 2.1 4 4 0 0 1-1-1.6zm-88.2.9c0-3.8-1.3-7-4-9.9-2.5-2.5-4.9-3.8-7.1-3.8H147c-2.5 0-5 1.7-7.6 5-2.5 3.3-3.7 6.1-3.7 8.7v2.6c0 2 1 4 3 6.5 2.7 3.1 5.7 4.7 9.2 4.7 2.4 0 5-1.3 7.7-3.8 3.2-3 4.8-6.3 4.8-10zM152 135c-2.5 0-5.3-1.3-8.2-4-2.9-2.7-4.3-5.3-4.3-7.8 0-.8.1-1.5.4-2 1-2.2 2.4-3.3 4.4-3.3 4 0 7.6 2.6 10.7 7.8l1.6 2.8v2.7l-2 2.7a3.6 3.6 0 0 1-2.6 1.1zm22.1-31.3c.5 0 1.3.3 2.3 1l1.8 1.6c.7-.7 1.5-1.7 2.3-3l1.5-2.4c0-.7-.8-1.2-2.2-1.5l-2.1-.4H176c-2.2 0-4.5 1.2-6.9 3.8-2.3 2.5-3.5 4.8-3.5 7v5.1a14.4 14.4 0 0 0-1 1.4l-.8 1.4a7 7 0 0 0-1 2.9c0 .5.3.8.8 1 .4 0 .6-.2.7-.6 0-.4.4-.6 1.3-.6v16.1c0 .3-.2.7-.5 1.1-.6.9-1 1.5-1 1.9.1.5.4.8 1 .8s1.1-.2 1.6-.4l1-.4h1.8l.8.2 2 .6.7-.4.2-.6-.9-1.4c-.6-.9-.9-2-.9-3.3v-14.4h4c1 0 2.4-1.2 4-3.6l.9-1.5 1-2-.2-.4-.8-.8-1.8 1.6c-.5.4-1.3.6-2.5.6l-1.7.2h-1.5c-.6.1-1 0-1.2-.2v-10.4h2.4z"/><path fill="url(#b)" d="M301.8 140.8a3.7 3.7 0 0 0-3 1.3 5 5 0 0 0-1.1 3.4c0 .8.2 2.2.7 4.4.5 2.3 1 3.4 1.7 3.4 1 0 2.3-1.1 3.8-3.3 1.6-2.3 2.4-4 2.4-5 0-1.2-.4-2.2-1.4-3a4.7 4.7 0 0 0-3.1-1.2zM80.2 173v-2.2l.8 2.3-1 2.2.2-2.3zm284.6 2.4 5.3-3.1 8.1-4.9c2.8-1.7 4.2-2.8 4.2-3.5 0-.5-2-2-6-4.1a23.5 23.5 0 0 0-7.3-3.4h-2.8c-3 0-6 1.7-9.2 5.1-3 3.4-4.6 6.6-4.6 9.6v7c0 2.8 1.4 6 4.3 9.4 2.8 3.5 5.5 5.3 8.3 5.3h3.6c2.7 0 5.5-1.6 8.4-4.6 3-3.1 4.5-6 4.5-8.5l-.2-1.4c-.2-.2-.5-.4-.9-.4l-4.2 4.3a10 10 0 0 1-6 2c-3 0-5.5-1-7.8-3a14.1 14.1 0 0 1-2.6-2.7c0-.2 1.6-1.2 5-3.1zm-5.7 0c-.6-.5-1-1.2-1.3-2l-.6-1.3v-5.2l2.6-4.7c1-1.2 2.3-1.8 3.7-1.8 1.2 0 2.1.4 2.8 1.3 2.4 3 4.5 4.9 6.1 5.7l-8.8 5.2c-2.9 1.8-4.4 2.7-4.5 2.9zM309 161.9l3 1.5c1.7.9 2.5 2 2.5 3.4v18.8l-.9 3a41.2 41.2 0 0 0-1 3V192.6h1.2a8.9 8.9 0 0 1 3.9-1.3c1.3 0 2.6.3 3.7.9l.7.4h2v-.8c0-.6-.2-1-.6-1.3-.5-.4-.8-1.5-.8-3.2v-19.7l7.9-4.6c1.9 1.3 3 2.3 3.4 2.8.9 1 1.3 2.3 1.3 4v17c0 1 1 2.4 3 4.1 1.8 1.4 3 2 3.4 2l3.5-2c2.2-1.3 3.4-2.2 3.4-2.6 0-.4-.4-.7-1.2-.8-1-.1-1.8-.3-2.1-.7-.8-.8-1.2-2.3-1.2-4.5v-15c0-1.8-1-4-2.8-6.3a14 14 0 0 0-5.6-4.4l-12.7 7.7-2.7-4.7c-1.3-2.2-2.7-3.3-4.2-3.3l-2.2 1.4a13 13 0 0 1-.8.6 4 4 0 0 0-.5.4 22 22 0 0 0-3.6 3zm-234-33c-1.5-1.8-3.1-3.5-4.9-5.2-16-15-39-17.3-54.3-6.5-6.5-5.8-11-13-12.1-21.2-.6-3.3-.5-6.7 0-10A28.7 28.7 0 0 1 5 82.2c1.3-3.5 3.4-6 6.7-8 3-1.7 6.5-2.6 10.2-2.6 4.2 0 7.2 1.2 9 4 1.4 2.1.7 4-2.2 5.7l.4.5c.5.9 1.6 1.2 3.3 1.1 1.4-.1 2.6-.4 3.6-1a6.7 6.7 0 0 0 3.1-4 6.6 6.6 0 0 0 .2-2.3 9 9 0 0 0-3.5-5.1c-8.7-6.3-20.8-1.7-24.5.6a23.7 23.7 0 0 0-11 17 33.5 33.5 0 0 0 .2 8.5c1.3 8.8 6 16.4 13 22.4a35 35 0 0 0-3 2.7 34.7 34.7 0 0 0-4.4 6c-3.2 4.8-3.5 11.7-2 16.2 1.2 3 6.2 10.9 14.6 10a8.6 8.6 0 0 0 4.8-2.3 6.7 6.7 0 0 0 1-1.7c.3-.7.5-1.3.5-2s-.1-1.4-.4-2c-.3-.8-.8-1.5-1.6-2-1-.8-1.8-1-2.6-.6l-.5.2c1 2.3.4 4-1.6 4.9-2.5 1.1-5 .9-7.5-.8a12.4 12.4 0 0 1-4.8-5.8c-1-2.6-1-5.2 0-8.2a27.6 27.6 0 0 1 9.4-13 71.5 71.5 0 0 0 59 10.7c9 12 11.7 27.6 7.3 40.1a25 25 0 0 0-2-4.1 16 16 0 0 0-.8-1.8c-3.1-6.2-7.4-9.3-12.8-9.3-.8 0-1.7.1-2.7.4-3.2.9-5.2 2.1-6.3 3.7l-7-.2a14 14 0 0 1-8.4-3c-3-2.1-4.6-4.5-4.6-7 0-1.7.7-3 2-4.2s2.9-1.7 4.6-1.7 4 .9 6.9 2.5l4.8 2.8 3 1.8c2.8 1.6 5.2 2.3 7.5 2.3 2.5 0 4.8-1 6.9-3 2.7-2.7 4-5.3 4-7.7 0-.5-.2-.9-.6-1.1l-.7-.4c-.2 0-.8.6-2 1.7-1 1.1-2 1.6-3.3 1.6l-11.4-4.5c-3.3-1.4-6.6-2-9.8-2-4.1 0-8 1.6-11.4 4.9a14.7 14.7 0 0 0-5.2 11c0 4.5 1.8 8.4 5.5 11.5 3.5 3 7.6 4.5 12.4 4.5h.7c0-2 1-3.6 2.8-4.7 1.6-1 3.4-1.4 5.5-1.4 2.9 0 5.4 1.2 7.6 3.7A12 12 0 0 1 70 176c0 3.8-1.6 7-4.8 9.7a16 16 0 0 1-10.5 3.9 19.2 19.2 0 0 1-10.4-3 14 14 0 0 1-3-2.6 4 4 0 0 1 3.4-.4c1.3.4 1.9 1.2 1.7 2.6l.4.1c.4.1 1 0 1.3-.5.4-.4.6-.8.7-1.3 0-.4 0-.8-.2-1.1l-.6-1.1-.9-1c-.4-.2-1.7-.9-3-.8-1.9 0-3.2.6-4.2 1.5a9 9 0 0 1-1-4.1c0-3 1.7-4.4 5-4.4v-.7c0-1.1-.7-2-2.1-2.9a8 8 0 0 0-3.7-1c-1 0-1.9.2-2.7.6a7.1 7.1 0 0 0-2.3 1.5 8 8 0 0 0-1.5 2.1 6 6 0 0 0-.6 2.6v2.6c0 .4.2 1 .7 1.7l.5.9a27 27 0 0 0 5 6.3c-.1 2.6 1.2 6.5 3.9 9a25.5 25.5 0 0 0 3.5 3 24.5 24.5 0 0 0 34.2-5.5c4.2-6 5.2-13.2 3.5-19.9 6-13.2 3.8-29.7-6-43l-1.5-2zM68 130a66.4 66.4 0 0 1-50.4-11.4c14.5-9.8 36-7.8 50.8 6 1.5 1.5 3 3 4.2 4.5-1.5.4-3 .7-4.6.9zm9.7 63a23.3 23.3 0 0 1-37.7-.4c-1-1.6-1.5-3-1.3-4.5 4 3 8.8 4.6 14.4 4.6h5.4c4.1 0 7.9-1.1 11.3-3.2a22 22 0 0 0 7.5-8c1.6-2 3-4 4-6.1 1.1 6 0 12.5-3.6 17.6zm182-5.5c-1-.1-1.8-.3-2.1-.7-.8-.8-1.2-2.3-1.2-4.5v-15c0-1.9-1-4-2.8-6.3a14 14 0 0 0-5.6-4.4l-12.7 7.7-2.7-4.7c-1.3-2.2-2.7-3.3-4.2-3.3l-2.2 1.4-.8.6-.5.4a21.9 21.9 0 0 0-3.6 3l3 1.5c1.7.9 2.5 2 2.5 3.4v18.8l-.9 3a42.5 42.5 0 0 0-1 3V192.6h1.2a8.9 8.9 0 0 1 3.9-1.3c1.3 0 2.6.3 3.7.9l.7.4h2v-.8c0-.6-.2-1-.5-1.3-.6-.4-.9-1.5-.9-3.2v-19.7l7.9-4.6c1.9 1.3 3 2.3 3.4 2.8.9 1 1.3 2.3 1.3 4v17c0 1 1 2.4 3.1 4.1 1.7 1.4 2.8 2 3.3 2l3.5-2c2.3-1.3 3.4-2.2 3.4-2.6 0-.4-.4-.7-1.2-.8zm-47.5-27.8a23.5 23.5 0 0 0-7.3-3.4h-2.7c-3 0-6.1 1.7-9.3 5.1-3 3.4-4.6 6.6-4.6 9.6v7c0 2.8 1.4 6 4.3 9.4 2.8 3.5 5.5 5.3 8.3 5.3h3.7c2.6 0 5.4-1.6 8.3-4.6 3-3.1 4.6-6 4.6-8.5l-.3-1.4c-.2-.2-.4-.4-.8-.4l-4.3 4.3a10 10 0 0 1-6 2c-3 0-5.5-1-7.8-3a14 14 0 0 1-2.6-2.7c0-.2 1.6-1.2 5-3.1l5.2-3 8.1-5c2.8-1.7 4.2-2.8 4.2-3.5 0-.5-2-2-6-4.1zm-12.8 12.8c-2.9 1.7-4.4 2.7-4.5 2.9-.6-.6-1-1.4-1.3-2.1l-.6-1.3v-5.2l2.6-4.7c1-1.2 2.3-1.8 3.7-1.8 1.2 0 2.1.4 2.9 1.3 2.4 3 4.4 4.9 6 5.7l-8.8 5.2zm80.7-8.4 2.3-.7c3.8-1.6 5.8-4.2 5.8-7.5-.1-.8-.5-1.3-1.1-1.7l-2 1.4c-.6.5-1.7.7-3 .7h-5.4v-15.7h-.7a87.6 87.6 0 0 0-6.4 3.4c-.8 1-1.2 3.2-1.2 6.7v6.1c0 .4-.1.7-.4 1.1a17.5 17.5 0 0 0-1.7 2.2l-1.5 2.8v2.4h.9l.7-.6c.6-.4 1.1-.6 1.6-.5v20c0 1.2 1.1 3 3.4 5.2s4 3.3 5.3 3.3a40.5 40.5 0 0 0 7.9-4.5l2.5-1.9c0-.4-.1-.7-.4-1l-1.3-.2-.8.2h-1c-4.6 0-6.9-2.2-6.9-6.7V165l3.4-.7zm116.7-12a49.9 49.9 0 0 0-3.4-8.7 25 25 0 0 0-15.1-13c-3.6-.9-14.2-.9-17.7 8.7-1 2.7-.7 5.7-.4 6.6a9.5 9.5 0 0 0 1.2 2.3c.5.7 1 1.3 1.7 1.8a5.5 5.5 0 0 0 2.2 1c.9.1 1.9 0 3-.4 1.2-.5 1.8-1.3 1.8-2.3v-.8c-2.7-.5-4-2.2-3.9-5a8.2 8.2 0 0 1 4.8-7.4c2.6-1.4 5.4-1.7 8.4-1.1 3 .6 5.7 2.3 8 5.3l2.5 3.4a46.8 46.8 0 0 1 4.3 10 47.7 47.7 0 0 1-31.5 59.2 50 50 0 0 1-58.1-25.1V163l-1.5-3.3c-.9-2.3-2-3.5-3.2-3.5l-4.5 2.4a23 23 0 0 0-5 3.3c.8.9 1.4 1.4 2 1.4 2.3 0 3.4.9 3.4 2.8v19.5c0 1.1-.2 2.2-.7 3.2l-1.4 2.7v1.1h12.4a50.1 50.1 0 0 0 90.7-40.6zm-258.2 4.5c-1.9 0-3.6 1-5.2 2.9a18.2 18.2 0 0 1-2.8 2.9c-1-2.2-2.5-4-4.5-5.5l-1.2-.6c-.6.2-2 1.2-4.2 3-2.3 1.8-3.4 2.9-3.4 3.2l4 1.6c1.2.7 1.8 1.8 1.8 3.4v19.7c0 .7-.5 1.6-1.3 2.9l-1.3 1.5.6 1h.7l2.5-1a8.7 8.7 0 0 1 5.9 0l2 1 1-.1c.3-.3.4-.6.4-.9 0-.3-.4-1-1.2-2s-1.2-1.7-1.2-2.2v-20c0-.8.5-1.6 1.4-2.5.9-1 1.7-1.5 2.3-1.5 1.7 0 2.6.8 2.6 2.3v1.1l-.1 1.3v1.3h1l7.2-10.8c-.5-.6-1.7-1-3.4-1.4l-3.6-.6zm-30 3a23.5 23.5 0 0 0-7.4-3.3h-2.7c-3 0-6 1.7-9.2 5.1-3.1 3.4-4.6 6.6-4.6 9.6v7c0 2.8 1.4 6 4.2 9.4 2.8 3.5 5.6 5.3 8.3 5.3h3.7c2.6 0 5.4-1.6 8.4-4.6 3-3.1 4.5-6 4.5-8.5l-.3-1.4c-.1-.2-.4-.4-.8-.4l-4.3 4.3a10 10 0 0 1-6 2c-2.9 0-5.5-1-7.7-3a14 14 0 0 1-2.7-2.7c0-.2 1.7-1.2 5-3.2l5.3-3 8-4.9c2.9-1.7 4.3-2.8 4.3-3.5 0-.5-2.1-2-6-4.1zm-12.8 12.9c-3 1.7-4.4 2.7-4.6 2.9-.6-.6-1-1.4-1.3-2.1l-.5-1.3v-5.2l2.5-4.7c1.1-1.2 2.4-1.8 3.8-1.8 1.1 0 2 .4 2.8 1.3 2.4 3 4.4 4.9 6 5.7l-8.7 5.2zm76.8-16.2-11 6.8-2.8-4.7c-.8-1.2-1.6-1.8-2.4-1.8-.5 0-2 .9-4.4 2.6l-3.6 2.7v1.6c1.6 0 2.7.2 3.3.6.8.5 1.2 1.5 1.2 3.1v16c0 .4-.6 1-1.6 1.9-1 .7-1.6 1.8-1.8 3.2l-.2.3.3.9 2-1 1.3-.3V199c0 2.3-.5 4-1.4 4.8-.2.4-.6.7-1.1 1v1.7h1.5l.7-.1 1.4-.3 2-.5 1.4.2 1.3.3 2.4.9h1.4v-1.9l-1.3-1.6-.3-1v-12c1.5.5 2.4.9 2.7 1.1l2.5 1.2h2.2c3.6 0 7.2-2.2 10.9-6.6 3.5-4.2 5.3-8 5.3-11.7v-2.1c0-3.6-1.5-7-4.5-10.4a22 22 0 0 0-7.4-5.6zm4.9 26.5-3.2 3.5H171a20.8 20.8 0 0 0-9-5.8v-1.4l.1-2.7v-2.7l-.2-1.4h.5l.1-6.2c2.1-1 3.8-1.9 5-2.8l.5-.6c.4 0 1.3.5 2.8 1.3 5.5 3 8.2 7.4 8.2 13.1 0 2.2-.5 4.1-1.5 5.7zM15.8 117.1c-6.5-5.8-11-13-12.1-21.2-.6-3.3-.5-6.7 0-10A28.7 28.7 0 0 1 5 82.2c1.3-3.5 3.4-6 6.7-8 3-1.7 6.5-2.6 10.2-2.6 4.2 0 7.2 1.2 9 4 1.4 2.1.7 4-2.2 5.7l.4.5c.5.9 1.6 1.2 3.3 1.1 1.4-.1 2.6-.4 3.6-1a6.7 6.7 0 0 0 3.1-4 6.6 6.6 0 0 0 .2-2.3 9 9 0 0 0-3.5-5.1c-8.7-6.3-20.8-1.7-24.5.6a23.7 23.7 0 0 0-11 17 33.5 33.5 0 0 0 .2 8.5c1.3 8.8 6 16.4 13 22.4a35 35 0 0 0-3 2.7 34.7 34.7 0 0 0-4.4 6c-3.2 4.8-3.5 11.7-2 16.2 1.2 3 6.2 10.9 14.6 10a8.6 8.6 0 0 0 4.8-2.3 6.7 6.7 0 0 0 1-1.7c.3-.7.5-1.3.5-2s-.1-1.4-.4-2c-.3-.8-.8-1.5-1.6-2-1-.8-1.8-1-2.6-.6l-.5.2c1 2.3.4 4-1.6 4.9-2.5 1.1-5 .9-7.5-.8a12.4 12.4 0 0 1-4.8-5.8c-1-2.6-1-5.2 0-8.2a27.6 27.6 0 0 1 9.4-13"/><path fill="url(#c)" d="M328.6 95.3c.7-.5 1-1 1.3-1.6 0-.3-.3-.6-.8-1s-1.1-.6-1.8-.9a12 12 0 0 0-3.5-1c-2.2 0-4 1-5.6 2.8s-2.3 3.9-2.3 6.2c0 5.5 2.9 9.7 8.7 12.8a33.9 33.9 0 0 0 16.2 3.8c7.4 0 14.4-2.2 21.2-6.5 7.5-4.8 11.2-10.8 11.2-18v-5c0-3.7-1.5-7.3-4.5-10.8a13 13 0 0 0-10.2-5.3h-3.7c-2 0-3.7.7-5.3 2-4 3-6.6 4.5-7.8 4.5-3.9 0-7.6-1-11.1-3-4.3-2.3-6.4-5.2-6.4-8.6 0-2.6.8-4.7 2.5-6.2a10.3 10.3 0 0 1 2.3-1.3c2 0 5.6 1.4 10.8 4.2a33 33 0 0 0 9.3 4.2h4.4c3.2 0 5.7-1.5 7.5-4.7l4.2-7.4V53H363c-1.2 0-2 .5-2.5 1.4-1 1-1.7 1.4-2.2 1.4l-10-4a28 28 0 0 0-9.8-1.8c-2.8 0-5.4.5-7.9 1.5A18.5 18.5 0 0 0 320.1 62c-1 2.4-1.5 5-1.5 7.8-.5.6-.8 1.2-1 2l1.8 6.1c4 10.6 12.2 15.9 24.6 15.9v-2l-1-.8-.4-1.7c0-1.6.8-3.2 2.3-4.8 1.6-1.6 3.2-2.4 4.7-2.4 2.7 0 5 1.1 7 3.4s2.8 4.9 2.8 7.8c0 5-1.8 9.2-5.4 12.6s-8 5-13 5c-4.3 0-7.8-.8-10.6-2.6s-4.2-4.1-4.2-7.1.8-5 2.5-6zm-42.3-2.6c2.7 0 7-2 12.7-6.2l.2 1.7-.2 1.8.2 1.7c.3.5.7.7 1.2.7l2.7-.8c.5-.3 1.2-.4 2.3-.4 1.2 0 2.2.2 3.1.7a13.2 13.2 0 0 1 .9.4l1 .4c.7 0 1.1-.5 1.1-1.5l-1.2-3.2a17 17 0 0 1-1.2-3.2V35.3c0-1.4.5-2.7 1.5-3.8l1.5-1.7c-.1-.8-.7-1.2-1.8-1.2-1.1.2-3.7 1.3-7.6 3.5l-6.5 3.5c.2.6.7 1.2 1.7 2 1.1.8 1.6 2 1.6 3.9v9.7l-.8 1a14 14 0 0 0-3.2-1.7l-1.8-.5h-4.2c-1.4 0-3.7 1.2-6.8 3.7-8.1 6.4-12.2 12-12.2 17v5.8c0 3.4 1.8 7 5.3 10.7 3.6 3.7 7.1 5.5 10.5 5.5zm-8.1-23.3V68c0-3.2.8-6 2.6-8.1s4.1-3.3 7.1-3.3 6.8 2.3 11.3 6.8v16.5l-2.5 2.5c-1 .7-2 1-3 1H291c-5.6 0-10-4.4-13.4-13.2l.6-.7zm-67.3 23.3c3.6 0 7.6-2 12-5.9 5-4.6 7.5-9.8 7.5-15.5a21 21 0 0 0-6.5-15.3c-3.8-4-7.4-5.9-10.9-5.9h-3.5c-3.8 0-7.8 2.6-11.9 7.8-3.8 5-5.7 9.4-5.7 13.4v4.1c0 3 1.6 6.3 4.8 10.1a18 18 0 0 0 14.2 7.2zM198.4 63c1.5-3.4 3.8-5 7-5 6.1 0 11.6 4 16.4 12.1l2.7 4.4v4.2l-3.2 4.1a5.6 5.6 0 0 1-4 1.7c-4 0-8.2-2-12.8-6.1-4.4-4.2-6.7-8.3-6.7-12.2a8 8 0 0 1 .6-3.2zm42.3.2v23.1c0 .8-.5 2-1.5 3.4l-1.5 1.8.7 1.2h.8l3-1.2a10.2 10.2 0 0 1 6.9 0l2.4 1.2 1-.2c.4-.3.6-.7.6-1 0-.4-.5-1.2-1.4-2.3s-1.4-2-1.4-2.6V63c0-.8.5-1.7 1.6-2.8 1-1.2 2-1.8 2.7-1.8 2 0 3 1 3 2.7v1.3l-.1 1.5v1.6h1l8.6-12.7c-.6-.6-2-1.2-4-1.6l-4.2-.8c-2.2 0-4.2 1.2-6 3.4-1.9 2.2-3 3.3-3.3 3.4-1.2-2.5-3-4.6-5.4-6.4l-1.4-.7c-.6.2-2.2 1.4-4.9 3.5-2.6 2.2-4 3.4-4 3.8l4.7 1.8c1.4.8 2.1 2.2 2.1 4zm-60.4-13.8c-.7.2-2.6 1.4-5.6 3.6l-4.8 3.7 7 3.6c2.1 1.5 3.1 3.4 3.1 5.9v3.6c0 3-1.3 6.2-3.9 9.9-2.3 3.2-3.7 4.8-4 4.8-.7 0-2-1-4-2.7-2.5-2-3.7-4-3.7-5.6V61.8c0-2.8-1.3-5.5-4-8.3-2.3-2.4-4-3.7-5-3.7-.5 0-2.9 1.4-7 4.2l1.7 3c1.6 0 2.9 1.3 3.8 4 .6 1.7 1 3.7 1 5.9v13.4a35.9 35.9 0 0 1-2.5 1.6l-2 1.2-1.3.8c-.4 0-.9.3-1.3.6-1 0-2.2-.7-3.4-2.1-1.2-1.4-1.9-2.6-1.9-3.7l.3-13.4.6-7.6c0-1.4-.8-3.2-2.6-5.6-2-2.2-3.6-3.2-5-3.2l-3.9 2.4a24.6 24.6 0 0 0-3.8 3 1.4 1.4 0 0 0 .4 1l1.3.2c1.1.1 1.9.5 2.2 1 .7 1.2 1.1 3.3 1.1 6.5v18c0 2 1.1 4.3 3.4 6.8a18.8 18.8 0 0 0 6.1 4.9l13.2-9c1 1.3 2.8 3 5.4 4.8 3.8 2.6 6.2 3.9 7.2 3.9s1.6-.4 2-1l10.5-14c4.6-6.3 7-11.9 7-16.8 0-1.5-1-3.8-2.7-6.7-1.8-3-3.5-4.5-4.9-4.5zM76.5 130.8c24.2-6 42.5-21.6 47-39.4.7-2.5 1.2-4.8 1.2-6.9v-5c0-1.8-.8-4.2-2.2-7a41 41 0 0 0-2.6-4.4v-.2h-.1c-4.7-6.9-10.6-10.3-17.9-10.3-1.2 0-2.7.2-4.3.7-5 1.4-8.4 3.4-10 5.9l-11.4-.3c-4.4 0-8.8-1.6-13.3-4.9-5-3.3-7.4-7.1-7.4-11.3 0-2.5 1-4.7 3.2-6.5s4.6-2.7 7.4-2.7 6.3 1.3 11 4l7.7 4.5 4.8 2.8c4.4 2.5 8.4 3.7 12 3.7 4 0 7.7-1.6 11-4.9 3-3 4.9-5.8 5.8-8.6l1.9-2.5c2.8-3.4 2.2-12.2 1.2-16-.7-2.4-4.1-9.3-10.8-9.7-1.8-.1-3.4.7-3.8 1a4.6 4.6 0 0 0-1 1.3 4.1 4.1 0 0 0-.4 1.5l.1 1.6c.2.6.6 1.3 1.2 1.9.7.7 1.4 1 2 .7h.4c-.6-2 0-3.2 1.6-3.7 2-.6 3.8 0 5.7 1.6 1.7 1.5 2.8 3.2 3.4 5.3a9 9 0 0 1-.4 6.4 20.1 20.1 0 0 1-1.2 2.2 22.4 22.4 0 0 1-8.4 7.6l-1.4.1L90.3 32a42.2 42.2 0 0 0-15.8-3.3c-6.6 0-12.7 2.7-18.2 8-5.6 5.1-8.4 11-8.4 17.5 0 7.3 3 13.5 9 18.6a31.6 31.6 0 0 0 1.7 1.4c-14-6.1-23.8-21.4-22.9-37.5A36.7 36.7 0 0 1 74.1 2.2a35 35 0 0 1 8.3 1.4l2.9 1.2c2.6 1.3 4.4 3 5.4 5.2a9.8 9.8 0 0 1 .6 6.6 6.4 6.4 0 0 1-4.7 4.9c-2 .6-3.5-.1-4.4-2.1l-.5.1c-.8.3-1.2.9-1.4 1.9a4 4 0 0 0 .3 2.3 4.2 4.2 0 0 0 1 1.5l1.7 1c.7.3 1.2.4 2 .4s3-.2 4.7-1.4c6.5-4.4 4.7-12.5 3.4-15a19 19 0 0 0-12.3-9A38.6 38.6 0 0 0 33.8 37 38.8 38.8 0 0 0 63.7 77c3.9 1.8 8.2 2.7 12.9 2.7h1.2v-.2c.5 2.1 1.7 4.8 4.5 5.9a4 4 0 0 0 2.5 0 3 3 0 0 0 .9-.5l.5-.8.2-1a3 3 0 0 0-.3-1.4c-.3-.6-.7-.9-1-.9h-.4c0 1.3-.5 2-1.6 2-1.3-.1-2.4-.8-3.2-2.2a7.2 7.2 0 0 1-1-5.1 9.4 9.4 0 0 1 3.3-3.2c2.5-1.5 5.5-2.3 8.8-2.3 4.6 0 8.7 2 12.2 6s5.3 8.4 5.3 13.1c0 6-2.5 11.2-7.7 15.5a25.7 25.7 0 0 1-18.5 6.2c-8.2-1.5-14.6-6.8-15.7-13.7a13 13 0 0 1 0-4 11.8 11.8 0 0 1 .5-1.5 5.7 5.7 0 0 1 2.6-3.1 7.8 7.8 0 0 1 4-1c1.6-.1 2.7.4 3.4 1.5.6.9.3 1.7-.8 2.3l.2.2c.2.4.6.5 1.3.5.5 0 1-.2 1.4-.4a2.6 2.6 0 0 0 .7-.7l.5-.9a2.7 2.7 0 0 0 0-1c0-.3-.4-1.3-1.3-2-3.4-2.5-8.1-.7-9.6.2a9.4 9.4 0 0 0-4.2 6.8 13.9 13.9 0 0 0 0 3.4c.9 5.4 4.8 9.8 10.3 12.4-2.8-.8-5.6-2-8.2-3.7-5.9-3.7-8.8-8.3-8.8-14 0-4.6 2.7-7 8.2-7V84c0-1.7-1.2-3.2-3.5-4.5-2.1-1.1-4.1-1.7-6-1.7a10.9 10.9 0 0 0-4.3 1c-1.4.5-2.6 1.3-3.6 2.3s-1.8 2.2-2.4 3.5a9.5 9.5 0 0 0-1 4.2v4.1c0 .4.2 1 .5 1.6a19.7 19.7 0 0 0-11.1-1.7c-3.2.4-6 2.7-7.2 5-.8 1.5-2 6.5 1.6 9.8 1 1 2.3 1.3 2.7 1.3l1-.2c.4-.2.7-.2 1-.5l.7-.8.2-1.5c-.1-.7-.4-1.1-.8-1.3l-.3-.1c-.5 1.2-1.4 1.5-2.5 1a4.4 4.4 0 0 1-2.6-3.5c-.2-1.5 0-2.9.5-4.2a5.6 5.6 0 0 1 3.2-3c.4 0 1.1-.3 1.7-.5 1.5-.3 3-.4 4.7-.3 3 .2 5.8 1 8.3 2.6l.3.4a36.9 36.9 0 0 0 33.6 19.2H90c6.6 0 12.6-1.7 18-5.1l1-.6a74.3 74.3 0 0 1-34.2 18.2l1.6 2z"/></svg>