<svg xmlns="http://www.w3.org/2000/svg" width="532.003" height="288.488" viewBox="0 0 399.002 216.367" xmlns:v="https://vecta.io/nano"><defs><linearGradient id="A" x1="201.434" y1="97.554" x2="201.434" y2="153.156" gradientUnits="userSpaceOnUse"><stop offset=".466" stop-color="#2e2e2e"/><stop offset=".688" stop-color="#dedede"/></linearGradient><linearGradient id="B" x1="199.501" y1="62.948" x2="199.501" y2="224.252" gradientUnits="userSpaceOnUse"><stop offset=".677" stop-color="#2e2e2e"/><stop offset=".772" stop-color="#dedede"/></linearGradient><linearGradient id="C" x1="200.293" y1="-3.84" x2="200.293" y2="137.673" gradientUnits="userSpaceOnUse"><stop offset=".471" stop-color="#2e2e2e"/><stop offset=".64" stop-color="#dedede"/></linearGradient></defs><path d="M206.024 118.818l1.742-.517c2.923-1.246 4.385-3.139 4.385-5.676-.088-.561-.365-.99-.838-1.291l-1.482 1.097c-.475.345-1.248.516-2.321.516h-3.998v-11.87h-.582l-3.458 1.775-1.324.805c-.604.732-.904 2.41-.904 5.033v4.644c0 .259-.111.538-.335.839-.431.475-.851 1.023-1.257 1.647s-.786 1.322-1.129 2.095v1.807h.645l.579-.451c.43-.301.816-.429 1.161-.387v15.095c0 .947.854 2.26 2.564 3.935 1.752 1.635 3.1 2.451 4.04 2.451.601-.086 1.997-.838 4.19-2.258l1.74-1.161 1.871-1.356c0-.301-.088-.536-.259-.708l-.968-.194c-.258.087-.473.13-.645.13h-.709c-3.481 0-5.222-1.678-5.222-5.031v-10.452l2.513-.516zm30.871 20.712c2.502-3.441 3.755-6.884 3.755-10.327v-2.581c0-4.303-1.813-8.304-5.437-12.004-1.21-1.204-1.922-1.807-2.138-1.807-.172 0-1.705.989-4.596 2.967-2.979 1.98-4.877 3.056-5.697 3.227h-.712c.266-.256.378-.752.335-1.482l-.335-9.102c.089-.342.179-.967.268-1.871l.066-2.324c0-.73.258-1.418.774-2.065l1.678-2.192c0-.602-.345-.904-1.032-.904l-4.882 2.451-4.303 2.519c0 .259.129.537.387.838.815.647 1.224 1.163 1.224 1.55v29.173c0 .431-.108 1.011-.321 1.741l-1.033 1.485v1.55h1.162c.341-.344.811-.537 1.411-.581l1.218-.194c1.024 0 1.965.13 2.822.387l1.283.389.711-.13c.213-.13.321-.345.321-.645 0-.042-.237-.58-.71-1.612s-.709-1.829-.709-2.389v-13.36c1.725-1.332 3.341-2.365 4.85-3.099l1.424-.71c1.207 0 2.435 1.549 3.688 4.646 1.119 2.84 1.68 4.949 1.68 6.326v2.195c0 1.764-.494 3.829-1.482 6.195-.475 1.119-.99 2.131-1.548 3.033s-1.161 1.656-1.805 2.26c-2.624 2.493-5.803 4.193-9.542 5.098-1.332.301-1.999.644-1.999 1.033l.387.84c.171.257.451.387.839.387h2.386c2.407 0 5.306-1.314 8.702-3.937 2.881-2.238 5.184-4.56 6.912-6.971zm29.513-10.041c-.129-.215-.344-.322-.644-.322l-3.224 3.223c-1.374.99-2.879 1.482-4.512 1.482-2.193 0-4.149-.722-5.868-2.17-.216-.17-.495-.425-.838-.764s-.731-.787-1.161-1.342c0-.126 1.245-.913 3.739-2.361l3.998-2.296 6.125-3.702c2.105-1.275 3.158-2.148 3.158-2.617-.042-.423-1.568-1.465-4.577-3.125-2.924-1.701-4.75-2.553-5.479-2.553h-2.064c-2.279 0-4.6 1.287-6.963 3.861-2.322 2.532-3.482 4.938-3.482 7.211v5.342c0 2.061 1.074 4.422 3.224 7.082 2.106 2.617 4.19 3.926 6.255 3.926h2.772c1.976 0 4.083-1.147 6.318-3.445 2.277-2.331 3.417-4.465 3.417-6.398l-.194-1.031zm-17.826-3.76c-.194-.602-.335-.923-.419-.967v-3.869l1.934-3.545c.816-.943 1.763-1.418 2.836-1.418.861 0 1.569.345 2.129 1.03 1.806 2.235 3.33 3.653 4.577 4.255l-6.641 3.934c-2.193 1.332-3.332 2.063-3.416 2.191-.474-.473-.808-1.01-1-1.611zm-88.138.859c0-3.776-1.377-7.059-4.128-9.848-2.45-2.533-4.792-3.799-7.027-3.799h-2.256c-2.494 0-5.051 1.679-7.672 5.037-2.45 3.174-3.674 6.047-3.674 8.619v2.638c0 1.888 1.03 4.052 3.094 6.497 2.578 3.088 5.629 4.631 9.155 4.631 2.321 0 4.877-1.266 7.672-3.799 3.223-2.959 4.836-6.285 4.836-9.977zm-8.446 8.516c-2.536 0-5.266-1.326-8.188-3.978-2.88-2.693-4.32-5.301-4.32-7.825 0-.769.127-1.453.387-2.053.944-2.179 2.427-3.269 4.449-3.269 3.997 0 7.542 2.608 10.637 7.824l1.677 2.822v2.693l-1.999 2.695a3.61 3.61 0 0 1-2.643 1.09zm22.122-31.33c.517 0 1.269.324 2.258.967l1.87 1.615c.685-.689 1.438-1.68 2.256-2.971l1.482-2.387c-.043-.687-.774-1.182-2.193-1.484l-2.126-.451h-1.612c-2.15 0-4.425 1.27-6.828 3.807-2.357 2.496-3.536 4.841-3.536 7.034l-.026 5.099a14.44 14.44 0 0 0-1.031 1.42c-.301.474-.56.925-.773 1.356-.645 1.248-.967 2.215-.967 2.902.041.475.301.798.773.969.386 0 .622-.191.709-.58.043-.387.473-.581 1.289-.581l.026 16.134c-.044.301-.194.666-.451 1.096-.645.861-.968 1.485-.968 1.872.043.518.322.774.838.774.643 0 1.199-.127 1.669-.387l1.023-.388h1.791l.831.259 2.056.516.58-.323c.172-.171.257-.387.257-.645l-.902-1.353c-.602-.946-.902-2.066-.902-3.356v-14.393h3.963c1.073 0 2.407-1.182 3.998-3.548.301-.431.602-.937.902-1.517s.622-1.26.968-2.033l-.193-.387-.775-.775-1.74 1.548c-.518.388-1.376.603-2.579.645l-1.676.129-1.482.065c-.602.087-.99.022-1.162-.194v-10.453h2.386z" fill="url(#A)"/><path d="M301.781 140.823a3.74 3.74 0 0 0-2.949 1.323c-.769.884-1.152 2.008-1.152 3.376 0 .741.228 2.192.684 4.358.511 2.281 1.081 3.419 1.709 3.419 1.024 0 2.307-1.11 3.846-3.333 1.596-2.277 2.393-3.93 2.393-4.957 0-1.196-.456-2.193-1.367-2.99a4.66 4.66 0 0 0-3.162-1.196zM80.204 172.966v-2.198c.295.772.543 1.558.759 2.353l-1.017 2.189c.166-.814.257-1.597.257-2.344zm284.603 2.384l5.299-3.045 8.119-4.907c2.791-1.69 4.187-2.847 4.187-3.468-.056-.562-2.079-1.943-6.066-4.143-3.877-2.256-6.297-3.385-7.264-3.385h-2.735c-3.021 0-6.097 1.706-9.229 5.118-3.078 3.357-4.615 6.544-4.615 9.558v7.083c0 2.731 1.424 5.86 4.273 9.387 2.791 3.47 5.555 5.204 8.29 5.204h3.675c2.619 0 5.413-1.52 8.376-4.566 3.018-3.091 4.529-5.919 4.529-8.482l-.257-1.365c-.172-.285-.457-.43-.855-.43l-4.272 4.274c-1.822 1.311-3.816 1.965-5.981 1.965-2.907 0-5.499-.957-7.777-2.877-.285-.225-.656-.562-1.111-1.013s-.969-1.044-1.539-1.778c0-.167 1.65-1.21 4.957-3.129zm-5.725.139c-.628-.626-1.07-1.338-1.325-2.135s-.443-1.225-.555-1.283v-5.127l2.562-4.699c1.083-1.252 2.337-1.881 3.761-1.881 1.141 0 2.079.457 2.821 1.366 2.393 2.962 4.414 4.843 6.066 5.64l-8.802 5.215c-2.907 1.766-4.417 2.734-4.528 2.904zm-50.101-13.717l2.99 1.534c1.709.852 2.565 1.989 2.565 3.407v18.836l-.94 2.898c-.287.853-.501 1.535-.642 2.045s-.244.825-.3.939l-.085.425.085.852h1.11c1.591-.851 2.896-1.277 3.916-1.277 1.358 0 2.605.285 3.739.851l.68.427h1.963v-.852c0-.51-.171-.937-.512-1.277-.57-.396-.856-1.447-.856-3.153v-19.688l7.87-4.602c1.92 1.307 3.049 2.246 3.387 2.811.902.911 1.354 2.246 1.354 4.006v16.874c0 1.081 1.029 2.475 3.09 4.178 1.716 1.363 2.831 2.045 3.346 2.045l3.429-1.961c2.278-1.363 3.419-2.242 3.419-2.641 0-.455-.399-.737-1.196-.853-1.085-.111-1.797-.338-2.137-.682-.798-.795-1.196-2.299-1.196-4.516v-14.916c0-1.931-.937-4.06-2.808-6.391-1.702-2.101-3.547-3.55-5.531-4.348l-12.763 7.672-2.638-4.687c-1.306-2.217-2.724-3.324-4.254-3.324l-2.131 1.363a12.98 12.98 0 0 1-.812.598 4.08 4.08 0 0 0-.556.424c-2.393 1.82-3.589 2.815-3.589 2.984zM74.91 128.75c-1.451-1.779-3.043-3.49-4.779-5.111-16.124-15.051-39.022-17.381-54.326-6.557-6.541-5.748-10.92-12.983-12.15-21.15-.507-3.369-.441-6.727.118-10.025a28.72 28.72 0 0 1 1.097-3.755c1.319-3.481 3.437-6.016 6.694-7.876 3.114-1.778 6.512-2.683 10.192-2.713 4.208-.034 7.196 1.283 8.968 3.948 1.459 2.19.755 4.107-2.115 5.747l.386.582c.54.814 1.637 1.168 3.278 1.062 1.443-.115 2.644-.444 3.6-.991.814-.464 1.486-1.043 2.015-1.731s.904-1.422 1.117-2.195a6.57 6.57 0 0 0 .197-2.381c-.079-.813-1.131-3.44-3.52-5.148-8.689-6.215-20.822-1.626-24.46.62C5.749 74.449.575 81.353.179 88.15l.007-.003a33.53 33.53 0 0 0 .183 8.501c1.314 8.728 5.982 16.348 12.958 22.345a34.97 34.97 0 0 0-2.877 2.749 34.74 34.74 0 0 0-4.415 5.875l-.002-.005c-3.204 4.908-3.56 11.755-1.947 16.253 1.071 2.988 6.114 10.931 14.536 9.976 2.314-.262 4.283-1.69 4.743-2.228a6.66 6.66 0 0 0 1.088-1.74c.263-.625.407-1.281.433-1.972s-.087-1.355-.346-1.997c-.304-.756-.865-1.455-1.684-2.098-.943-.715-1.787-.895-2.528-.536l-.529.256c.912 2.267.368 3.881-1.625 4.845-2.427 1.173-4.908.929-7.445-.738a12.39 12.39 0 0 1-4.812-5.875c-1.036-2.57-1.039-5.17-.076-8.12.259-.793.762-2.076 1.237-3.054 1.33-2.524 2.99-4.898 5.006-7.058.998-1.068 2.061-2.05 3.171-2.962 12.929 9.985 32.674 14.829 53.738 11.656 1.792-.269 3.557-.594 5.294-.967 8.947 12.073 11.752 27.658 7.329 40.169-.533-1.434-1.187-2.829-1.986-4.159-.211-.566-.461-1.158-.793-1.8-3.134-6.204-7.409-9.306-12.825-9.306-.797 0-1.711.143-2.735.429-3.134.911-5.216 2.136-6.241 3.675l-7.096-.148c-2.736 0-5.501-1.018-8.295-3.056-3.079-2.093-4.616-4.442-4.616-7.048 0-1.583.668-2.941 2.008-4.072s2.865-1.699 4.576-1.699 3.987.827 6.839 2.477l4.829 2.821 3.037 1.795c2.736 1.539 5.214 2.307 7.437 2.307 2.564 0 4.873-1.025 6.925-3.076 2.678-2.676 4.018-5.235 4.018-7.676 0-.506-.202-.872-.601-1.1l-.682-.422c-.171.056-.828.647-1.966 1.774-1.027 1.076-2.137 1.611-3.334 1.611l-11.385-4.566c-3.366-1.352-6.649-2.029-9.844-2.029-4.108 0-7.903 1.647-11.385 4.934-3.482 3.234-5.221 6.893-5.221 10.975 0 4.537 1.855 8.393 5.564 11.568 3.48 2.948 7.587 4.423 12.326 4.423h.77c0-1.971.914-3.519 2.74-4.645 1.597-.957 3.424-1.437 5.478-1.437 2.909 0 5.448 1.252 7.618 3.756 2.226 2.504 3.338 5.234 3.338 8.192 0 3.756-1.6 6.972-4.794 9.644-3.139 2.62-6.646 3.928-10.527 3.928a19.21 19.21 0 0 1-10.358-2.99c-1.268-.791-2.301-1.662-3.129-2.605 1.024-.661 2.178-.805 3.465-.415 1.312.396 1.893 1.268 1.743 2.616l.349.105c.486.147.944-.017 1.369-.49.366-.423.575-.859.626-1.31.043-.381-.002-.766-.13-1.152s-.324-.749-.579-1.081-.56-.634-.915-.902-1.728-.931-3.11-.908c-1.8.03-3.154.678-4.164 1.572a8.92 8.92 0 0 1-1.003-4.147c0-2.905 1.708-4.359 5.128-4.359v-.769c0-1.08-.742-2.022-2.221-2.82-1.312-.682-2.536-1.025-3.677-1.025-.969 0-1.882.185-2.735.557a7.11 7.11 0 0 0-2.223 1.495 7.96 7.96 0 0 0-1.537 2.179 5.92 5.92 0 0 0-.598 2.607v2.564c0 .344.225.912.679 1.709l.508.855c1.489 2.482 3.19 4.576 5.102 6.286-.187 2.667 1.155 6.509 3.817 9.043l.001-.003a25.52 25.52 0 0 0 3.524 2.99c11.195 7.873 26.485 5.416 34.153-5.486 4.202-5.976 5.237-13.244 3.477-19.891 6.01-13.17 3.82-29.732-5.897-42.955l-1.548-2.006zm-6.799 1.342c-19.695 2.967-38.207-1.851-50.365-11.399 14.431-9.748 35.875-7.814 50.772 6.092 1.505 1.405 2.899 2.899 4.189 4.46-1.518.322-3.047.613-4.597.848zm9.646 62.981c-7.189 10.222-21.891 12.268-32.385 4.888-1.522-1.07-2.874-2.289-4.061-3.617-.436-.517-.939-1.202-1.22-1.633-1.026-1.564-1.454-3.008-1.309-4.506 3.99 3.027 8.81 4.547 14.464 4.547h5.392c4.106 0 7.857-1.065 11.251-3.197 3.129-1.967 5.634-4.629 7.528-7.973 1.591-1.908 2.939-3.955 4.068-6.1 1.04 6.055-.126 12.469-3.728 17.591zm182.043-5.48c-1.085-.111-1.797-.338-2.138-.682-.797-.795-1.196-2.299-1.196-4.516v-14.916c0-1.931-.936-4.06-2.808-6.391-1.701-2.101-3.547-3.55-5.531-4.348l-12.762 7.672-2.639-4.687c-1.305-2.217-2.724-3.324-4.254-3.324l-2.131 1.363c-.284.226-.556.426-.811.598s-.443.313-.557.424c-2.393 1.82-3.588 2.815-3.588 2.984l2.99 1.534c1.708.852 2.564 1.989 2.564 3.407v18.836l-.939 2.898c-.287.853-.501 1.535-.643 2.045s-.243.825-.299.939l-.086.425.086.852h1.11c1.591-.851 2.895-1.277 3.915-1.277 1.359 0 2.607.285 3.74.851l.679.427h1.964v-.852c0-.51-.172-.937-.512-1.277-.57-.396-.855-1.447-.855-3.153v-19.688l7.869-4.602c1.92 1.307 3.049 2.246 3.388 2.811.901.911 1.355 2.246 1.355 4.006v16.874c0 1.081 1.029 2.475 3.09 4.178 1.715 1.363 2.83 2.045 3.346 2.045l3.428-1.961c2.279-1.363 3.42-2.242 3.42-2.641 0-.455-.399-.737-1.196-.853zm-47.535-27.807c-3.876-2.256-6.296-3.385-7.263-3.385h-2.736c-3.019 0-6.097 1.706-9.228 5.118-3.078 3.357-4.615 6.544-4.615 9.558v7.083c0 2.731 1.423 5.86 4.272 9.387 2.791 3.47 5.554 5.204 8.29 5.204h3.674c2.62 0 5.414-1.52 8.377-4.566 3.018-3.091 4.529-5.919 4.529-8.482l-.258-1.365c-.171-.285-.456-.43-.855-.43l-4.272 4.274c-1.822 1.311-3.816 1.965-5.982 1.965-2.906 0-5.498-.957-7.777-2.877-.285-.225-.656-.562-1.11-1.013s-.969-1.044-1.539-1.778c0-.167 1.65-1.21 4.956-3.129l5.3-3.045 8.118-4.907c2.791-1.69 4.187-2.847 4.187-3.468-.056-.562-2.08-1.943-6.067-4.143zm-12.733 12.797c-2.908 1.766-4.417 2.734-4.528 2.904-.628-.626-1.071-1.338-1.325-2.135s-.443-1.225-.555-1.283v-5.127l2.562-4.699c1.083-1.252 2.337-1.881 3.761-1.881 1.141 0 2.079.457 2.82 1.366 2.393 2.962 4.414 4.843 6.067 5.64l-8.802 5.215zm80.623-8.393c.911-.227 1.681-.457 2.309-.684 3.874-1.653 5.812-4.162 5.812-7.525-.115-.742-.484-1.312-1.11-1.711l-1.966 1.453c-.628.457-1.652.684-3.076.684h-5.3v-15.733h-.772c-1.998.97-3.526 1.755-4.583 2.353s-1.642.955-1.755 1.066c-.8.972-1.199 3.195-1.199 6.672v6.156c0 .342-.149.713-.444 1.112a17.54 17.54 0 0 0-1.667 2.181c-.543.826-1.041 1.753-1.495 2.777v2.396h.854l.768-.599c.57-.398 1.083-.568 1.54-.512v20.009c0 1.257 1.131 2.995 3.399 5.216 2.322 2.168 4.107 3.25 5.354 3.25.798-.113 2.647-1.11 5.555-2.992.74-.455 1.51-.97 2.307-1.539l2.481-1.797c0-.399-.115-.712-.343-.94l-1.282-.258c-.343.117-.628.172-.856.172h-.938c-4.616 0-6.923-2.223-6.923-6.67v-13.854c1.31-.226 2.421-.457 3.332-.684zm116.777-12.043a49.9 49.9 0 0 0-3.474-8.644h.006c-3.163-6.705-9.779-11.687-15.113-13.001-3.545-.872-14.139-.859-17.7 8.732-.978 2.637-.614 5.688-.327 6.539a9.52 9.52 0 0 0 1.15 2.326c.478.698 1.052 1.294 1.728 1.786a5.46 5.46 0 0 0 2.168.976c.916.186 1.911.059 2.986-.377 1.217-.52 1.849-1.297 1.888-2.326l.031-.733c-2.742-.558-4.056-2.22-3.945-4.987.133-3.365 1.706-5.837 4.721-7.412 2.637-1.378 5.442-1.766 8.416-1.162 3.111.631 5.695 2.377 8.113 5.383.648.81 1.654 2.207 2.373 3.37a46.78 46.78 0 0 1 4.333 10.065c7.354 24.782-6.594 51.722-31.476 59.107-22.575 6.701-48.098-4.492-58.129-25.135v-23.559l-1.458-3.334c-.918-2.277-1.975-3.418-3.176-3.418l-4.546 2.393c-2.451 1.313-4.103 2.394-4.957 3.248.74.914 1.366 1.368 1.881 1.368 2.334 0 3.502.94 3.502 2.819v19.484c0 1.141-.257 2.223-.767 3.248l-1.368 2.735v1.11h12.452c11.58 18.684 34.671 28.102 56.841 21.522 26.539-7.878 41.694-35.692 33.848-62.126zm-258.268 4.511c-1.822 0-3.533.97-5.128 2.907-1.595 1.826-2.536 2.796-2.821 2.907-.974-2.165-2.492-3.989-4.553-5.474l-1.203-.598c-.515.171-1.915 1.17-4.196 2.992-2.223 1.827-3.334 2.91-3.334 3.25l3.932 1.539c1.196.688 1.794 1.828 1.794 3.422v19.674c0 .686-.429 1.654-1.282 2.906l-1.282 1.539.598 1.027h.684l2.571-1.027c.858-.34 1.917-.512 3.178-.512 1.087 0 1.975.172 2.662.512l2.056 1.027.941-.172c.283-.282.426-.567.426-.856 0-.34-.398-.996-1.196-1.965s-1.196-1.711-1.196-2.227v-20.099c0-.682.455-1.481 1.368-2.395.911-1.023 1.681-1.539 2.307-1.539 1.708 0 2.564.77 2.564 2.31v1.112l-.086 1.282.086 1.284h.856l7.263-10.777c-.515-.57-1.653-1.025-3.417-1.367l-3.591-.685zm-30.059 3.128c-3.876-2.256-6.296-3.385-7.263-3.385h-2.735c-3.021 0-6.097 1.706-9.229 5.118-3.079 3.357-4.616 6.544-4.616 9.558v7.083c0 2.731 1.423 5.86 4.272 9.387 2.791 3.47 5.555 5.204 8.29 5.204h3.674c2.62 0 5.413-1.52 8.376-4.566 3.019-3.091 4.53-5.919 4.53-8.482l-.257-1.365c-.171-.285-.457-.43-.856-.43l-4.272 4.274c-1.822 1.311-3.816 1.965-5.981 1.965-2.907 0-5.499-.957-7.778-2.877-.285-.225-.656-.562-1.11-1.013s-.969-1.044-1.54-1.778c0-.167 1.651-1.21 4.957-3.129l5.3-3.045 8.118-4.907c2.791-1.69 4.187-2.847 4.187-3.468-.056-.562-2.08-1.943-6.067-4.143zm-12.734 12.797c-2.907 1.766-4.416 2.734-4.527 2.904-.629-.626-1.071-1.338-1.326-2.135s-.443-1.225-.554-1.283v-5.127l2.562-4.699c1.082-1.252 2.336-1.881 3.76-1.881 1.141 0 2.08.457 2.822 1.366 2.392 2.962 4.414 4.843 6.067 5.64l-8.803 5.215zm76.808-16.182l-10.963 6.836-2.826-4.699c-.8-1.195-1.6-1.797-2.397-1.797-.515 0-1.971.856-4.368 2.565l-3.674 2.65v1.625c1.65 0 2.763.199 3.333.598.797.512 1.196 1.566 1.196 3.162v15.897c0 .454-.543 1.11-1.625 1.963-1.025.742-1.595 1.825-1.709 3.248l-.255.258.341.855 2.052-.941c.399-.226.797-.341 1.196-.341v10.769c0 2.276-.457 3.871-1.368 4.785-.227.34-.598.653-1.111.941v1.708h1.452c.171 0 .426-.044.77-.128s.802-.187 1.377-.301c1.261-.285 1.95-.427 2.065-.427l1.379.171c.573.114.974.227 1.206.342l2.497.855h1.377v-1.881l-1.289-1.623-.343-1.026v-12.05c1.481.57 2.393.969 2.736 1.195l2.478 1.196h2.223c3.533 0 7.15-2.192 10.855-6.579 3.533-4.215 5.3-8.118 5.3-11.709v-2.136c0-3.589-1.486-7.036-4.453-10.342-2.514-2.733-4.998-4.613-7.451-5.64zm4.871 26.523l-3.174 3.502h-3.26c-2.689-2.847-5.719-4.785-9.09-5.812v-1.368l.169-2.732-.085-2.736-.083-1.367h.426l.172-6.238c2.114-.912 3.744-1.851 4.889-2.819l.601-.513c.343 0 1.286.43 2.83 1.282 5.432 3.018 8.148 7.377 8.148 13.075 0 2.221-.514 4.131-1.543 5.726zM15.805 117.082c-6.541-5.748-10.92-12.983-12.15-21.15-.507-3.369-.441-6.727.118-10.025a28.72 28.72 0 0 1 1.097-3.755c1.319-3.481 3.437-6.016 6.694-7.876 3.114-1.778 6.512-2.683 10.192-2.713 4.208-.034 7.196 1.283 8.968 3.948 1.458 2.19.755 4.107-2.115 5.747l.386.582c.54.814 1.637 1.168 3.278 1.062 1.443-.115 2.644-.444 3.6-.991.814-.464 1.486-1.043 2.015-1.731s.904-1.422 1.117-2.195a6.57 6.57 0 0 0 .197-2.381c-.079-.813-1.131-3.44-3.52-5.148-8.689-6.215-20.822-1.626-24.46.62C5.749 74.449.575 81.353.179 88.15l.007-.003a33.53 33.53 0 0 0 .183 8.501c1.314 8.728 5.982 16.348 12.958 22.345a34.97 34.97 0 0 0-2.877 2.749 34.74 34.74 0 0 0-4.415 5.875l-.002-.005c-3.204 4.908-3.56 11.755-1.947 16.253 1.071 2.988 6.114 10.931 14.536 9.976 2.314-.262 4.283-1.69 4.743-2.228a6.66 6.66 0 0 0 1.088-1.74c.263-.625.407-1.281.433-1.972s-.087-1.355-.346-1.997c-.304-.756-.865-1.455-1.684-2.098-.943-.715-1.787-.895-2.528-.536l-.529.256c.912 2.267.368 3.881-1.625 4.845-2.427 1.173-4.908.929-7.445-.738a12.39 12.39 0 0 1-4.812-5.875c-1.036-2.57-1.039-5.17-.076-8.12.259-.793.762-2.076 1.237-3.054 1.33-2.524 2.99-4.898 5.006-7.058.998-1.068 2.061-2.05 3.171-2.962" fill="url(#B)"/><path d="M328.649 95.25c.621-.415 1.034-.931 1.246-1.557 0-.312-.262-.621-.781-.934s-1.117-.621-1.793-.934-1.349-.546-2.024-.703-1.168-.236-1.481-.236c-2.181 0-4.054.908-5.609 2.727s-2.333 3.872-2.333 6.155c0 5.508 2.909 9.777 8.729 12.813 4.776 2.55 10.18 3.822 16.207 3.822 7.377 0 14.44-2.178 21.195-6.536 7.482-4.768 11.224-10.732 11.224-17.894v-5.131c0-3.632-1.519-7.212-4.549-10.738-2.926-3.525-6.319-5.292-10.184-5.292h-3.74c-1.874 0-3.64.676-5.298 2.025-3.948 3.01-6.547 4.511-7.795 4.511-3.847 0-7.533-.985-11.062-2.956-4.261-2.383-6.387-5.288-6.387-8.712 0-2.592.828-4.667 2.489-6.227a10.31 10.31 0 0 1 2.337-1.242c1.975 0 5.56 1.403 10.756 4.201 5.089 2.803 8.205 4.202 9.349 4.202h4.363c3.223 0 5.716-1.556 7.491-4.671l4.232-7.466v-1.403h-2.35c-1.15.106-1.988.575-2.508 1.403-.942.935-1.674 1.4-2.19 1.4l-9.971-3.889c-3.327-1.243-6.599-1.869-9.82-1.869-2.808 0-5.428.495-7.871 1.475s-4.544 2.359-6.312 4.118-3.142 3.855-4.126 6.286-1.478 5.047-1.478 7.842c-.524.52-.838 1.191-.939 2.02l1.716 6.058c4.05 10.56 12.26 15.835 24.62 15.835v-1.86l-.934-.934-.465-1.708c0-1.552.776-3.128 2.337-4.734 1.555-1.606 3.116-2.41 4.671-2.41 2.702 0 5.014 1.141 6.938 3.419s2.883 4.866 2.883 7.761c0 4.972-1.817 9.166-5.445 12.581s-7.93 5.124-12.905 5.124c-4.354 0-7.931-.884-10.728-2.65s-4.197-4.156-4.197-7.17c0-2.908.828-4.883 2.494-5.922zm-42.343-2.538c2.729 0 6.959-2.07 12.69-6.21l.201 1.703-.201 1.804.201 1.7c.267.468.666.701 1.2.701l2.703-.801c.468-.267 1.233-.4 2.304-.4 1.2 0 2.232.234 3.102.701a13.21 13.21 0 0 1 .899.402c.267.133.567.266.902.399.798 0 1.2-.5 1.2-1.505l-1.2-3.205c-.335-.734-.584-1.369-.753-1.904s-.317-.971-.448-1.305V35.277c0-1.402.5-2.673 1.5-3.809l1.502-1.703c-.134-.801-.733-1.203-1.801-1.203-1.133.201-3.659 1.372-7.576 3.507l-6.492 3.509c.133.603.701 1.271 1.703 2.005 1.067.804 1.603 2.105 1.603 3.909v9.722l-.801.902c-1.003-.601-1.654-.951-1.953-1.051s-.718-.283-1.25-.552l-1.804-.5h-4.205c-1.467 0-3.737 1.236-6.808 3.708-8.143 6.349-12.213 11.996-12.213 16.939v5.813c0 3.409 1.767 6.984 5.298 10.724 3.597 3.678 7.095 5.515 10.496 5.515zm-8.144-23.307v-1.502c0-3.206.88-5.908 2.641-8.111s4.137-3.306 7.13-3.306c2.987 0 6.745 2.27 11.265 6.81V79.82l-2.493 2.501c-1.065.668-2.062 1.002-2.991 1.002h-2.691c-5.582 0-10.07-4.406-13.463-13.218l.603-.701zm-67.23 23.307c3.605 0 7.576-1.967 11.918-5.9 5.006-4.596 7.51-9.763 7.51-15.497 0-5.865-2.138-10.963-6.41-15.296-3.806-3.933-7.443-5.9-10.914-5.9h-3.504c-3.874 0-7.846 2.607-11.918 7.823-3.805 4.93-5.707 9.393-5.707 13.389v4.096c0 2.931 1.601 6.294 4.806 10.091 4.004 4.798 8.744 7.193 14.22 7.193zm-12.517-29.69c1.467-3.385 3.77-5.08 6.911-5.08 6.207 0 11.713 4.053 16.521 12.153l2.605 4.384v4.183l-3.105 4.186c-1.136 1.13-2.505 1.692-4.105 1.692-3.939 0-8.179-2.059-12.718-6.177-4.474-4.183-6.71-8.233-6.71-12.153 0-1.195.199-2.257.601-3.189zm42.284.225v23.052c0 .804-.502 1.939-1.502 3.406l-1.502 1.803.701 1.204h.801l3.013-1.204c1.005-.398 2.246-.6 3.724-.6 1.274 0 2.315.201 3.119.6l2.409 1.204 1.103-.201c.332-.331.5-.665.5-1.003 0-.398-.467-1.168-1.402-2.303s-1.4-2.005-1.4-2.607V63.047c0-.799.531-1.736 1.602-2.806 1.068-1.201 1.97-1.804 2.703-1.804 2.002 0 3.004.902 3.004 2.706v1.304l-.1 1.502.1 1.505h1.003l8.51-12.628c-.602-.668-1.936-1.201-4.004-1.603l-4.207-.801c-2.136 0-4.14 1.136-6.009 3.406-1.869 2.141-2.972 3.276-3.306 3.407-1.142-2.537-2.92-4.675-5.335-6.413l-1.41-.701c-.603.201-2.243 1.372-4.916 3.507-2.606 2.141-3.906 3.409-3.906 3.808l4.607 1.804c1.4.804 2.101 2.141 2.101 4.009zm-60.354-13.823c-.736.136-2.604 1.334-5.609 3.594l-4.806 3.697 7.008 3.594c2.07 1.467 3.105 3.431 3.105 5.892v3.597c0 2.928-1.304 6.223-3.912 9.885-2.341 3.197-3.71 4.794-4.111 4.794-.604 0-1.939-.899-4.013-2.697-2.407-2.064-3.61-3.928-3.61-5.593V61.808c0-2.796-1.339-5.558-4.012-8.291-2.274-2.461-3.912-3.694-4.911-3.694-.603 0-2.945 1.399-7.022 4.194l1.66 2.996c1.608 0 2.879 1.298 3.819 3.895.603 1.798.904 3.795.904 5.99v13.418a35.86 35.86 0 0 1-2.416 1.567l-1.994 1.2-1.298.802c-.462.065-.894.267-1.296.603-1.062 0-2.192-.701-3.39-2.102-1.263-1.337-1.896-2.573-1.896-3.706l.302-13.419.522-7.511c.068-1.402-.804-3.27-2.616-5.607-1.874-2.194-3.518-3.289-4.924-3.289l-3.917 2.406c-.734.467-1.418.951-2.054 1.454s-1.217 1.019-1.752 1.554a1.37 1.37 0 0 0 .402 1.002c.668.133 1.1.201 1.301.201 1.135.133 1.869.5 2.203 1.103.733 1.135 1.1 3.274 1.1 6.416v17.944c0 2.07 1.133 4.344 3.398 6.818.935 1.135 1.917 2.102 2.95 2.906s2.084 1.47 3.148 2.005l13.192-8.956c1.012 1.338 2.821 2.923 5.441 4.76 3.803 2.597 6.207 3.894 7.207 3.894.867 0 1.535-.334 2.002-.999l10.412-13.978c4.669-6.258 7.005-11.852 7.005-16.779 0-1.529-.905-3.759-2.708-6.69-1.807-2.994-3.412-4.493-4.814-4.493zM76.458 130.756c24.263-5.864 42.499-21.527 46.952-39.354.839-2.464 1.272-4.765 1.272-6.891v-4.917c0-1.913-.732-4.283-2.191-7.106-.815-1.612-1.683-3.08-2.594-4.431l-.08-.155-.019.007c-4.689-6.878-10.637-10.33-17.853-10.33-1.278 0-2.741.23-4.383.687-5.022 1.461-8.357 3.421-9.999 5.888l-11.368-.238c-4.383 0-8.814-1.631-13.29-4.895-4.933-3.355-7.395-7.117-7.395-11.291 0-2.537 1.069-4.713 3.216-6.526s4.591-2.723 7.332-2.723 6.388 1.327 10.957 3.971l7.737 4.519 4.866 2.875c4.382 2.466 8.353 3.695 11.915 3.695 4.108 0 7.808-1.642 11.094-4.928 2.949-2.946 4.86-5.803 5.782-8.572l1.864-2.563c2.805-3.415 2.177-12.137 1.197-15.886-.65-2.491-4.093-9.41-10.725-9.806-1.823-.111-3.448.742-3.841 1.101a4.63 4.63 0 0 0-.956 1.219 4.12 4.12 0 0 0-.46 1.487c-.064.537-.016 1.074.145 1.613.192.635.587 1.26 1.186 1.875.69.691 1.337.947 1.938.765l.43-.126c-.572-1.902-.047-3.096 1.569-3.582 1.965-.589 3.886-.059 5.763 1.594 1.644 1.446 2.773 3.2 3.394 5.264.647 2.159.486 4.198-.446 6.382a20.1 20.1 0 0 1-1.154 2.229c-1.194 1.798-2.639 3.436-4.346 4.855-1.274 1.06-2.653 1.942-4.098 2.69-.443.098-.893.15-1.351.15l-18.24-7.317c-5.393-2.166-10.652-3.25-15.77-3.25-6.582 0-12.662 2.637-18.241 7.903-5.578 5.182-8.364 11.043-8.364 17.583 0 7.269 2.972 13.446 8.915 18.534a31.56 31.56 0 0 0 1.815 1.41c-14.008-6.092-23.804-21.411-22.906-37.51C36.849 16.485 54.422 1.061 74.127 2.158a34.97 34.97 0 0 1 8.241 1.467c.989.333 2.204.842 2.919 1.189 2.658 1.287 4.409 2.928 5.424 5.17a9.77 9.77 0 0 1 .612 6.583c-.641 2.567-2.202 4.204-4.679 4.911-2.038.583-3.503-.111-4.398-2.087l-.541.155c-.756.216-1.223.834-1.396 1.848-.135.894-.056 1.67.243 2.329a4.24 4.24 0 0 0 1.106 1.468c.484.42 1.027.749 1.631.984s1.247.386 1.93.451 3.015-.209 4.801-1.427c6.503-4.426 4.655-12.45 3.385-14.978-1.911-3.802-6.775-7.912-12.312-9.097l.001.004C78.827.561 76.478.194 74.062.059c-21.02-1.171-39.03 15.321-40.23 36.837-1.081 19.398 11.871 36.249 29.832 40.241 3.917 1.8 8.215 2.706 12.9 2.706h1.233c0-.074.012-.141.014-.214.46 2.099 1.682 4.794 4.46 5.85 1.097.418 2.258.207 2.567.063a2.99 2.99 0 0 0 .82-.564c.236-.231.426-.506.568-.824s.216-.656.221-1.017c.004-.426-.118-.885-.367-1.377-.291-.556-.639-.837-1.042-.842l-.288-.004c-.015 1.276-.565 1.908-1.65 1.895-1.318-.016-2.394-.711-3.228-2.085-.731-1.202-1.086-2.495-1.07-3.88.005-.452.074-.876.172-1.289.729-1.21 1.781-2.27 3.213-3.153 2.559-1.534 5.486-2.303 8.776-2.303 4.662 0 8.728 2.006 12.205 6.017 3.566 4.011 5.349 8.387 5.349 13.126 0 6.017-2.562 11.169-7.681 15.451-5.029 4.196-10.649 6.292-16.866 6.292-.553 0-1.099-.028-1.644-.056-8.262-1.555-14.648-6.814-15.682-13.68-.204-1.353-.184-2.7.027-4.022a11.75 11.75 0 0 1 .42-1.505c.506-1.395 1.326-2.407 2.59-3.148a7.76 7.76 0 0 1 3.961-1.069c1.638-.006 2.803.528 3.498 1.602.572.881.301 1.648-.812 2.302l.151.233c.212.328.64.473 1.278.433.561-.044 1.028-.173 1.399-.392a2.58 2.58 0 0 0 .781-.69c.207-.276.349-.569.43-.879a2.69 2.69 0 0 0 .072-.954c-.032-.327-.446-1.383-1.379-2.073-3.393-2.51-8.106-.691-9.518.203-2.124 1.345-4.124 4.105-4.265 6.831h.002a13.9 13.9 0 0 0 .087 3.41c.814 5.408 4.726 9.775 10.255 12.322-2.858-.799-5.608-2.013-8.247-3.659-5.854-3.65-8.776-8.305-8.776-13.965 0-4.654 2.737-6.983 8.216-6.983V84.01c0-1.731-1.189-3.239-3.559-4.52-2.103-1.092-4.063-1.642-5.891-1.642a10.88 10.88 0 0 0-4.382.891c-1.371.594-2.559 1.393-3.562 2.395s-1.824 2.169-2.463 3.492a9.48 9.48 0 0 0-.958 4.174v4.107c0 .367.176.91.499 1.6-2.234-1.043-4.623-1.699-7.11-1.857-1.371-.086-2.707-.019-4.003.183l.001-.003c-3.161.361-6.008 2.647-7.178 4.947-.778 1.529-2.01 6.541 1.566 9.844.982.908 2.295 1.252 2.683 1.26s.757-.043 1.103-.15.662-.279.946-.515.504-.521.659-.861c.184-.401.248-.893.192-1.476-.075-.662-.324-1.092-.747-1.284l-.304-.14c-.55 1.202-1.397 1.543-2.536 1.023-1.384-.632-2.23-1.793-2.533-3.484-.266-1.48-.099-2.871.5-4.176.625-1.364 1.655-2.29 3.189-2.926.413-.17 1.113-.408 1.679-.553 1.506-.322 3.077-.451 4.697-.347 2.934.187 5.755 1.095 8.327 2.565l.272.458c7.677 12.8 18.876 19.195 33.591 19.195h8.639c6.578 0 12.587-1.705 18.025-5.122.293-.184.569-.387.855-.578-8.584 8.352-20.582 14.977-34.102 18.238l1.548 2.006z" fill="url(#C)"/></svg>